<?xml version="1.0" encoding="utf-8"?>
<!-- Generator: Adobe Illustrator 27.5.0, SVG Export Plug-In . SVG Version: 6.00 Build 0)  -->
<svg version="1.1" id="Layer_1" xmlns="http://www.w3.org/2000/svg" xmlns:xlink="http://www.w3.org/1999/xlink" x="0px" y="0px"
	 viewBox="0 0 96 96" style="enable-background:new 0 0 96 96;" xml:space="preserve">
<style type="text/css">
	.st0{fill:#FFFFFF;}
</style>
<path class="st0" d="M35.2,40.2V56h7.6c0.8,0,5.6-0.2,5.6-4.6c0-2.8-1.9-3.7-2.9-4c0.8-0.4,2.2-1.2,2.2-3.2c0-1.2-0.2-3.8-5-3.8
	h-7.4V40.2z M52.6,41.6v1.4h5.9v-1.4H52.6z M38.6,42.8h3.2c0.3,0,2.3-0.2,2.3,1.8c0,1.7-1.5,1.9-2.1,1.9h-3.5
	C38.6,46.5,38.6,42.8,38.6,42.8z M55.7,44.3c-4.4,0-5.4,3.8-5.4,5.5c0,5,4.1,5.5,5.4,5.5c3.5,0,4.5-2.3,5-3.5h-2.6
	c-0.1,0.4-0.8,1.4-2.3,1.4c-2.3,0-2.6-1.9-2.6-2.7h7.6C60.8,47.6,59.6,44.3,55.7,44.3z M55.6,46.5c0.8,0,1.3,0.2,1.7,0.5
	c0.4,0.4,0.6,0.9,0.6,1.7h-4.7c0-0.2,0.1-0.5,0.1-0.8c0.1-0.3,0.2-0.5,0.4-0.8c0.2-0.3,0.5-0.5,0.8-0.5
	C54.8,46.6,55.1,46.5,55.6,46.5z M38.6,48.9h3.8c0.8,0,2.6,0.1,2.6,2.3c0,2.1-2.3,2.1-2.6,2.1h-3.7L38.6,48.9L38.6,48.9L38.6,48.9z"
	/>
</svg>
